# This file uses centimeters as units for non-parametric coordinates.

v 3.451159 5.558027 -0.433895
v 3.469491 5.138187 -1.032122
v 3.502874 4.475984 -1.340098
v 3.542363 3.748853 -1.275300
v 3.577378 3.151630 -0.855091
v 3.598535 2.844339 -0.192066
v 3.600166 2.909319 0.536117
v 3.581834 3.329159 1.134344
v 3.548451 3.991363 1.442320
v 3.508962 4.718493 1.377522
v 3.473948 5.315717 0.957313
v 3.452790 5.623007 0.294289
v 2.589143 6.637876 -0.839447
v 2.623016 5.862113 -1.944826
v 2.684700 4.638520 -2.513891
v 2.757667 3.294959 -2.394160
v 2.822365 2.191434 -1.617716
v 2.861459 1.623635 -0.392606
v 2.864473 1.743703 0.952902
v 2.830600 2.519466 2.058281
v 2.768916 3.743058 2.627346
v 2.695950 5.086620 2.507615
v 2.631251 6.190145 1.731171
v 2.592158 6.757944 0.506061
v 1.351370 7.323882 -1.105776
v 1.395627 6.310299 -2.550023
v 1.476221 4.711598 -3.293541
v 1.571557 2.956150 -3.137105
v 1.656089 1.514325 -2.122633
v 1.707167 0.772460 -0.521949
v 1.711105 0.929336 1.236042
v 1.666848 1.942919 2.680289
v 1.586255 3.541620 3.423808
v 1.490919 5.297068 3.267372
v 1.406387 6.738893 2.252899
v 1.355309 7.480758 0.652216
v -0.073721 7.511606 -1.192335
v -0.025817 6.414512 -2.755577
v 0.061417 4.684090 -3.560355
v 0.164607 2.784007 -3.391030
v 0.256104 1.223387 -2.292972
v 0.311391 0.420398 -0.560405
v 0.315654 0.590200 1.342431
v 0.267750 1.687294 2.905673
v 0.180516 3.417716 3.710451
v 0.077326 5.317799 3.541126
v -0.014171 6.878419 2.443069
v -0.069458 7.681408 0.710502
v -1.469172 7.172470 -1.085946
v -1.424915 6.158887 -2.530193
v -1.344321 4.560186 -3.273711
v -1.248986 2.804738 -3.117275
v -1.164454 1.362913 -2.102802
v -1.113375 0.621048 -0.502119
v -1.109437 0.777925 1.255872
v -1.153694 1.791507 2.700119
v -1.234288 3.390208 3.443638
v -1.329623 5.145657 3.287202
v -1.414155 6.587481 2.272729
v -1.465234 7.329346 0.672046
v -2.622539 4.909136 -2.313936
v -2.588667 3.570481 -2.491893
v -2.526983 2.323070 -1.977130
v -2.454016 1.501150 -0.907579
v -2.389318 1.324949 0.430175
v -2.350224 1.841685 1.677682
v -2.347210 2.912896 2.500674
v -2.381083 4.251552 2.678629
v -2.442767 5.498963 2.163866
v -2.515733 6.320884 1.094316
v -2.580432 6.497083 -0.243437
v -2.619525 5.980347 -1.490946
v -3.074460 4.435132 -1.186659
v -3.056128 3.710656 -1.282969
v -3.022745 3.035562 -1.004383
v -2.983255 2.590741 -0.425545
v -2.948241 2.495383 0.298442
v -2.927084 2.775038 0.973590
v -2.925452 3.354773 1.418988
v -2.943784 4.079249 1.515297
v -2.977167 4.754343 1.236710
v -3.016657 5.199164 0.657873
v -3.051671 5.294523 -0.066115
v -3.072828 5.014867 -0.741260
v 3.806183 4.248732 0.049139
v -2.047187 3.865903 0.099397
vt 0.000000 0.125000
vt 0.083333 0.125000
vt 0.083333 0.250000
vt 0.000000 0.250000
vt 0.166667 0.125000
vt 0.166667 0.250000
vt 0.250000 0.125000
vt 0.250000 0.250000
vt 0.333333 0.125000
vt 0.333333 0.250000
vt 0.416667 0.125000
vt 0.416667 0.250000
vt 0.500000 0.125000
vt 0.500000 0.250000
vt 0.583333 0.125000
vt 0.583333 0.250000
vt 0.666667 0.125000
vt 0.666667 0.250000
vt 0.750000 0.125000
vt 0.750000 0.250000
vt 0.833333 0.125000
vt 0.833333 0.250000
vt 0.916667 0.125000
vt 0.916667 0.250000
vt 1.000000 0.125000
vt 1.000000 0.250000
vt 0.083333 0.375000
vt 0.000000 0.375000
vt 0.166667 0.375000
vt 0.250000 0.375000
vt 0.333333 0.375000
vt 0.416667 0.375000
vt 0.500000 0.375000
vt 0.583333 0.375000
vt 0.666667 0.375000
vt 0.750000 0.375000
vt 0.833333 0.375000
vt 0.916667 0.375000
vt 1.000000 0.375000
vt 0.083333 0.500000
vt 0.000000 0.500000
vt 0.166667 0.500000
vt 0.250000 0.500000
vt 0.333333 0.500000
vt 0.416667 0.500000
vt 0.500000 0.500000
vt 0.583333 0.500000
vt 0.666667 0.500000
vt 0.750000 0.500000
vt 0.833333 0.500000
vt 0.916667 0.500000
vt 1.000000 0.500000
vt 0.083333 0.625000
vt 0.000000 0.625000
vt 0.166667 0.625000
vt 0.250000 0.625000
vt 0.333333 0.625000
vt 0.416667 0.625000
vt 0.500000 0.625000
vt 0.583333 0.625000
vt 0.666667 0.625000
vt 0.750000 0.625000
vt 0.833333 0.625000
vt 0.916667 0.625000
vt 1.000000 0.625000
vt 0.083333 0.750000
vt 0.000000 0.750000
vt 0.166667 0.750000
vt 0.250000 0.750000
vt 0.333333 0.750000
vt 0.416667 0.750000
vt 0.500000 0.750000
vt 0.583333 0.750000
vt 0.666667 0.750000
vt 0.750000 0.750000
vt 0.833333 0.750000
vt 0.916667 0.750000
vt 1.000000 0.750000
vt 0.083333 0.875000
vt 0.000000 0.875000
vt 0.166667 0.875000
vt 0.250000 0.875000
vt 0.333333 0.875000
vt 0.416667 0.875000
vt 0.500000 0.875000
vt 0.583333 0.875000
vt 0.666667 0.875000
vt 0.750000 0.875000
vt 0.833333 0.875000
vt 0.916667 0.875000
vt 1.000000 0.875000
vt 0.041667 0.000000
vt 0.125000 0.000000
vt 0.208333 0.000000
vt 0.291667 0.000000
vt 0.375000 0.000000
vt 0.458333 0.000000
vt 0.541667 0.000000
vt 0.625000 0.000000
vt 0.708333 0.000000
vt 0.791667 0.000000
vt 0.875000 0.000000
vt 0.958333 0.000000
vt 0.041667 1.000000
vt 0.125000 1.000000
vt 0.208333 1.000000
vt 0.291667 1.000000
vt 0.375000 1.000000
vt 0.458333 1.000000
vt 0.541667 1.000000
vt 0.625000 1.000000
vt 0.708333 1.000000
vt 0.791667 1.000000
vt 0.875000 1.000000
vt 0.958333 1.000000
vn 0.793957 0.508822 -0.332765
vn 0.793957 0.508822 -0.332765
vn 0.793957 0.508822 -0.332765
vn 0.793957 0.508822 -0.332765
vn 0.804740 0.283206 -0.521716
vn 0.804740 0.283206 -0.521716
vn 0.804740 0.283206 -0.521716
vn 0.804740 0.283206 -0.521716
vn 0.819935 -0.006482 -0.572420
vn 0.819935 -0.006482 -0.572420
vn 0.819935 -0.006482 -0.572420
vn 0.819935 -0.006482 -0.572420
vn 0.835469 -0.282621 -0.471292
vn 0.835469 -0.282621 -0.471292
vn 0.835470 -0.282621 -0.471292
vn 0.835470 -0.282621 -0.471292
vn 0.847182 -0.471219 -0.245429
vn 0.847182 -0.471219 -0.245429
vn 0.847182 -0.471219 -0.245429
vn 0.847182 -0.471219 -0.245429
vn 0.851933 -0.521743 0.044650
vn 0.851933 -0.521743 0.044650
vn 0.851933 -0.521743 0.044650
vn 0.851933 -0.521743 0.044650
vn 0.848451 -0.420654 0.321218
vn 0.848451 -0.420654 0.321218
vn 0.848451 -0.420654 0.321218
vn 0.848451 -0.420654 0.321218
vn 0.837668 -0.195039 0.510168
vn 0.837668 -0.195039 0.510168
vn 0.837668 -0.195039 0.510168
vn 0.837668 -0.195039 0.510168
vn 0.822474 0.094649 0.560873
vn 0.822474 0.094649 0.560873
vn 0.822474 0.094649 0.560873
vn 0.822474 0.094649 0.560873
vn 0.806939 0.370788 0.459745
vn 0.806939 0.370788 0.459745
vn 0.806939 0.370788 0.459745
vn 0.806939 0.370788 0.459745
vn 0.795227 0.559387 0.233882
vn 0.795227 0.559387 0.233882
vn 0.795227 0.559387 0.233882
vn 0.795227 0.559387 0.233882
vn 0.790475 0.609911 -0.056197
vn 0.790475 0.609911 -0.056197
vn 0.790475 0.609911 -0.056197
vn 0.790475 0.609911 -0.056197
vn 0.501241 0.715433 -0.486736
vn 0.501241 0.715433 -0.486736
vn 0.501241 0.715433 -0.486736
vn 0.501241 0.715433 -0.486736
vn 0.517167 0.382225 -0.765796
vn 0.517167 0.382225 -0.765796
vn 0.517167 0.382225 -0.765795
vn 0.517167 0.382225 -0.765795
vn 0.539607 -0.045612 -0.840680
vn 0.539607 -0.045612 -0.840680
vn 0.539607 -0.045612 -0.840680
vn 0.539607 -0.045612 -0.840680
vn 0.562550 -0.453438 -0.691326
vn 0.562550 -0.453438 -0.691326
vn 0.562550 -0.453438 -0.691326
vn 0.562550 -0.453438 -0.691326
vn 0.579848 -0.731977 -0.357751
vn 0.579848 -0.731977 -0.357751
vn 0.579848 -0.731977 -0.357751
vn 0.579848 -0.731977 -0.357751
vn 0.586866 -0.806595 0.070663
vn 0.586866 -0.806595 0.070663
vn 0.586866 -0.806595 0.070663
vn 0.586866 -0.806595 0.070663
vn 0.581723 -0.657298 0.479122
vn 0.581723 -0.657298 0.479122
vn 0.581723 -0.657298 0.479122
vn 0.581723 -0.657298 0.479122
vn 0.565797 -0.324089 0.758182
vn 0.565797 -0.324089 0.758182
vn 0.565797 -0.324089 0.758182
vn 0.565797 -0.324089 0.758182
vn 0.543357 0.103747 0.833067
vn 0.543357 0.103747 0.833067
vn 0.543357 0.103747 0.833067
vn 0.543357 0.103747 0.833067
vn 0.520414 0.511573 0.683712
vn 0.520414 0.511573 0.683712
vn 0.520414 0.511573 0.683712
vn 0.520414 0.511573 0.683712
vn 0.503116 0.790113 0.350137
vn 0.503116 0.790113 0.350137
vn 0.503116 0.790113 0.350137
vn 0.503116 0.790113 0.350137
vn 0.496099 0.864730 -0.078277
vn 0.496099 0.864730 -0.078277
vn 0.496099 0.864730 -0.078277
vn 0.496099 0.864730 -0.078277
vn 0.141374 0.812347 -0.565779
vn 0.141374 0.812347 -0.565779
vn 0.141374 0.812347 -0.565779
vn 0.141374 0.812347 -0.565779
vn 0.159987 0.422889 -0.891947
vn 0.159987 0.422889 -0.891947
vn 0.159987 0.422889 -0.891947
vn 0.159987 0.422889 -0.891947
vn 0.186216 -0.077172 -0.979473
vn 0.186216 -0.077172 -0.979473
vn 0.186216 -0.077172 -0.979473
vn 0.186216 -0.077172 -0.979473
vn 0.213032 -0.553845 -0.804906
vn 0.213032 -0.553845 -0.804906
vn 0.213032 -0.553845 -0.804906
vn 0.213032 -0.553845 -0.804906
vn 0.233250 -0.879405 -0.415019
vn 0.233250 -0.879405 -0.415019
vn 0.233250 -0.879405 -0.415019
vn 0.233250 -0.879405 -0.415019
vn 0.241452 -0.966620 0.085717
vn 0.241452 -0.966620 0.085717
vn 0.241452 -0.966620 0.085716
vn 0.241452 -0.966620 0.085716
vn 0.235441 -0.792119 0.563130
vn 0.235441 -0.792119 0.563130
vn 0.235441 -0.792119 0.563129
vn 0.235441 -0.792119 0.563129
vn 0.216828 -0.402661 0.889297
vn 0.216828 -0.402661 0.889297
vn 0.216828 -0.402661 0.889297
vn 0.216828 -0.402661 0.889297
vn 0.190599 0.097400 0.976824
vn 0.190599 0.097400 0.976824
vn 0.190599 0.097400 0.976824
vn 0.190599 0.097400 0.976824
vn 0.163783 0.574073 0.802257
vn 0.163783 0.574073 0.802257
vn 0.163783 0.574073 0.802256
vn 0.163783 0.574073 0.802256
vn 0.143565 0.899633 0.412370
vn 0.143565 0.899633 0.412370
vn 0.143565 0.899633 0.412370
vn 0.143565 0.899633 0.412370
vn 0.135363 0.986848 -0.088366
vn 0.135363 0.986848 -0.088366
vn 0.135363 0.986848 -0.088366
vn 0.135363 0.986848 -0.088366
vn -0.235441 0.792119 -0.563129
vn -0.235441 0.792119 -0.563129
vn -0.235441 0.792119 -0.563130
vn -0.235441 0.792119 -0.563130
vn -0.216828 0.402661 -0.889297
vn -0.216828 0.402661 -0.889297
vn -0.216828 0.402661 -0.889297
vn -0.216828 0.402661 -0.889297
vn -0.190599 -0.097400 -0.976824
vn -0.190599 -0.097400 -0.976824
vn -0.190599 -0.097400 -0.976824
vn -0.190599 -0.097400 -0.976824
vn -0.163783 -0.574073 -0.802256
vn -0.163783 -0.574073 -0.802256
vn -0.163783 -0.574073 -0.802257
vn -0.163783 -0.574073 -0.802257
vn -0.143565 -0.899633 -0.412370
vn -0.143565 -0.899633 -0.412370
vn -0.143565 -0.899633 -0.412370
vn -0.143565 -0.899633 -0.412370
vn -0.135363 -0.986848 0.088366
vn -0.135363 -0.986848 0.088366
vn -0.135363 -0.986848 0.088366
vn -0.135363 -0.986848 0.088366
vn -0.141374 -0.812347 0.565779
vn -0.141374 -0.812347 0.565779
vn -0.141374 -0.812347 0.565779
vn -0.141374 -0.812347 0.565779
vn -0.159987 -0.422889 0.891947
vn -0.159987 -0.422889 0.891947
vn -0.159987 -0.422889 0.891947
vn -0.159987 -0.422889 0.891947
vn -0.186216 0.077172 0.979473
vn -0.186216 0.077172 0.979473
vn -0.186216 0.077172 0.979473
vn -0.186216 0.077172 0.979473
vn -0.213032 0.553845 0.804906
vn -0.213032 0.553845 0.804906
vn -0.213032 0.553845 0.804906
vn -0.213032 0.553845 0.804906
vn -0.233250 0.879405 0.415019
vn -0.233250 0.879405 0.415019
vn -0.233250 0.879405 0.415019
vn -0.233250 0.879405 0.415019
vn -0.241452 0.966620 -0.085716
vn -0.241452 0.966620 -0.085716
vn -0.241452 0.966620 -0.085717
vn -0.241452 0.966620 -0.085717
vn -0.581723 0.657298 -0.479122
vn -0.581723 0.657298 -0.479122
vn -0.581723 0.657298 -0.479122
vn -0.581723 0.657298 -0.479122
vn -0.565797 0.324089 -0.758182
vn -0.565797 0.324089 -0.758182
vn -0.565797 0.324089 -0.758182
vn -0.565797 0.324089 -0.758182
vn -0.543357 -0.103747 -0.833067
vn -0.543357 -0.103747 -0.833067
vn -0.543357 -0.103747 -0.833067
vn -0.543357 -0.103747 -0.833067
vn -0.520414 -0.511573 -0.683712
vn -0.520414 -0.511573 -0.683712
vn -0.520414 -0.511573 -0.683712
vn -0.520414 -0.511573 -0.683712
vn -0.503116 -0.790113 -0.350137
vn -0.503116 -0.790113 -0.350137
vn -0.503116 -0.790113 -0.350137
vn -0.503116 -0.790113 -0.350137
vn -0.496099 -0.864730 0.078277
vn -0.496099 -0.864730 0.078277
vn -0.496099 -0.864730 0.078277
vn -0.496099 -0.864730 0.078277
vn -0.501241 -0.715433 0.486736
vn -0.501241 -0.715433 0.486736
vn -0.501241 -0.715433 0.486736
vn -0.501241 -0.715433 0.486736
vn -0.517167 -0.382225 0.765795
vn -0.517167 -0.382225 0.765795
vn -0.517167 -0.382225 0.765795
vn -0.517167 -0.382225 0.765796
vn -0.539607 0.045612 0.840680
vn -0.539607 0.045612 0.840680
vn -0.539607 0.045612 0.840680
vn -0.539607 0.045612 0.840680
vn -0.562550 0.453438 0.691326
vn -0.562550 0.453438 0.691326
vn -0.562550 0.453438 0.691326
vn -0.562550 0.453438 0.691326
vn -0.579848 0.731977 0.357751
vn -0.579848 0.731977 0.357751
vn -0.579848 0.731977 0.357751
vn -0.579848 0.731977 0.357751
vn -0.586866 0.806595 -0.070663
vn -0.586866 0.806595 -0.070663
vn -0.586866 0.806595 -0.070663
vn -0.586866 0.806595 -0.070663
vn -0.931449 0.283806 -0.227720
vn -0.931449 0.283806 -0.227720
vn -0.931450 0.283805 -0.227720
vn -0.931450 0.283805 -0.227720
vn -0.923729 0.122261 -0.363012
vn -0.923729 0.122261 -0.363012
vn -0.923729 0.122261 -0.363012
vn -0.923729 0.122261 -0.363012
vn -0.912849 -0.085160 -0.399317
vn -0.912849 -0.085160 -0.399317
vn -0.912849 -0.085160 -0.399317
vn -0.912849 -0.085160 -0.399317
vn -0.901726 -0.282880 -0.326908
vn -0.901726 -0.282880 -0.326908
vn -0.901726 -0.282880 -0.326908
vn -0.901726 -0.282880 -0.326908
vn -0.893340 -0.417920 -0.165186
vn -0.893340 -0.417920 -0.165186
vn -0.893340 -0.417920 -0.165186
vn -0.893340 -0.417920 -0.165186
vn -0.889938 -0.454096 0.042515
vn -0.889938 -0.454096 0.042515
vn -0.889938 -0.454096 0.042516
vn -0.889938 -0.454096 0.042515
vn -0.892431 -0.381715 0.240543
vn -0.892431 -0.381715 0.240543
vn -0.892431 -0.381715 0.240543
vn -0.892431 -0.381715 0.240543
vn -0.900152 -0.220170 0.375835
vn -0.900152 -0.220170 0.375835
vn -0.900152 -0.220170 0.375835
vn -0.900152 -0.220170 0.375835
vn -0.911031 -0.012749 0.412140
vn -0.911031 -0.012749 0.412140
vn -0.911031 -0.012749 0.412140
vn -0.911031 -0.012749 0.412140
vn -0.922154 0.184971 0.339731
vn -0.922154 0.184971 0.339731
vn -0.922154 0.184971 0.339731
vn -0.922154 0.184971 0.339731
vn -0.930541 0.320011 0.178009
vn -0.930541 0.320011 0.178009
vn -0.930541 0.320011 0.178009
vn -0.930541 0.320011 0.178009
vn -0.933943 0.356187 -0.029693
vn -0.933943 0.356187 -0.029693
vn -0.933943 0.356187 -0.029693
vn -0.933943 0.356187 -0.029693
vn 0.968356 0.217269 -0.122807
vn 0.968356 0.217269 -0.122807
vn 0.968356 0.217269 -0.122807
vn 0.972179 0.137280 -0.189797
vn 0.972179 0.137280 -0.189797
vn 0.972179 0.137280 -0.189797
vn 0.977566 0.034574 -0.207774
vn 0.977566 0.034574 -0.207774
vn 0.977566 0.034574 -0.207774
vn 0.983073 -0.063328 -0.171920
vn 0.983073 -0.063328 -0.171920
vn 0.983073 -0.063328 -0.171920
vn 0.987226 -0.130193 -0.091843
vn 0.987226 -0.130193 -0.091843
vn 0.987226 -0.130193 -0.091843
vn 0.988910 -0.148106 0.011001
vn 0.988910 -0.148106 0.011001
vn 0.988910 -0.148106 0.011001
vn 0.987676 -0.112266 0.109055
vn 0.987676 -0.112266 0.109055
vn 0.987676 -0.112266 0.109055
vn 0.983853 -0.032277 0.176045
vn 0.983853 -0.032277 0.176045
vn 0.983853 -0.032277 0.176045
vn 0.978466 0.070429 0.194022
vn 0.978466 0.070429 0.194022
vn 0.978466 0.070429 0.194022
vn 0.972958 0.168331 0.158168
vn 0.972958 0.168331 0.158168
vn 0.972958 0.168331 0.158168
vn 0.968806 0.235197 0.078091
vn 0.968806 0.235197 0.078091
vn 0.968806 0.235197 0.078091
vn 0.967121 0.253109 -0.024753
vn 0.967121 0.253109 -0.024753
vn 0.967121 0.253109 -0.024753
vn -0.915856 -0.341306 0.211466
vn -0.915856 -0.341306 0.211466
vn -0.915856 -0.341306 0.211466
vn -0.921110 -0.201384 0.333169
vn -0.921110 -0.201384 0.333169
vn -0.921110 -0.201384 0.333169
vn -0.928668 -0.017417 0.370503
vn -0.928668 -0.017417 0.370503
vn -0.928668 -0.017417 0.370503
vn -0.936593 0.163254 0.310068
vn -0.936593 0.163254 0.310068
vn -0.936593 0.163254 0.310068
vn -0.942702 0.290213 0.164586
vn -0.942702 0.290213 0.164586
vn -0.942702 0.290213 0.164586
vn -0.945212 0.325346 -0.026915
vn -0.945212 0.325346 -0.026915
vn -0.945212 0.325346 -0.026915
vn -0.943362 0.257278 -0.209467
vn -0.943362 0.257278 -0.209467
vn -0.943362 0.257278 -0.209467
vn -0.937713 0.106519 -0.330679
vn -0.937713 0.106519 -0.330679
vn -0.937713 0.106519 -0.330679
vn -0.929928 -0.082440 -0.358383
vn -0.929928 -0.082440 -0.358383
vn -0.929928 -0.082440 -0.358383
vn -0.922172 -0.257272 -0.288807
vn -0.922172 -0.257272 -0.288807
vn -0.922172 -0.257272 -0.288807
vn -0.916458 -0.373394 -0.143811
vn -0.916458 -0.373394 -0.143811
vn -0.916458 -0.373394 -0.143811
vn -0.914175 -0.403529 0.038057
vn -0.914175 -0.403529 0.038057
vn -0.914175 -0.403529 0.038057
f 1/1/1 2/2/2 13/4/3
f 13/4/3 2/2/2 14/3/4
f 2/2/5 3/5/6 14/3/7
f 14/3/7 3/5/6 15/6/8
f 3/5/9 4/7/10 15/6/11
f 15/6/11 4/7/10 16/8/12
f 4/7/13 5/9/14 16/8/15
f 16/8/15 5/9/14 17/10/16
f 5/9/17 6/11/18 17/10/19
f 17/10/19 6/11/18 18/12/20
f 6/11/21 7/13/22 18/12/23
f 18/12/23 7/13/22 19/14/24
f 7/13/25 8/15/26 19/14/27
f 19/14/27 8/15/26 20/16/28
f 8/15/29 9/17/30 20/16/31
f 20/16/31 9/17/30 21/18/32
f 9/17/33 10/19/34 21/18/35
f 21/18/35 10/19/34 22/20/36
f 10/19/37 11/21/38 22/20/39
f 22/20/39 11/21/38 23/22/40
f 11/21/41 12/23/42 23/22/43
f 23/22/43 12/23/42 24/24/44
f 12/23/45 1/25/46 24/24/47
f 24/24/47 1/25/46 13/26/48
f 13/4/49 14/3/50 25/28/51
f 25/28/51 14/3/50 26/27/52
f 14/3/53 15/6/54 26/27/55
f 26/27/55 15/6/54 27/29/56
f 15/6/57 16/8/58 27/29/59
f 27/29/59 16/8/58 28/30/60
f 16/8/61 17/10/62 28/30/63
f 28/30/63 17/10/62 29/31/64
f 17/10/65 18/12/66 29/31/67
f 29/31/67 18/12/66 30/32/68
f 18/12/69 19/14/70 30/32/71
f 30/32/71 19/14/70 31/33/72
f 19/14/73 20/16/74 31/33/75
f 31/33/75 20/16/74 32/34/76
f 20/16/77 21/18/78 32/34/79
f 32/34/79 21/18/78 33/35/80
f 21/18/81 22/20/82 33/35/83
f 33/35/83 22/20/82 34/36/84
f 22/20/85 23/22/86 34/36/87
f 34/36/87 23/22/86 35/37/88
f 23/22/89 24/24/90 35/37/91
f 35/37/91 24/24/90 36/38/92
f 24/24/93 13/26/94 36/38/95
f 36/38/95 13/26/94 25/39/96
f 25/28/97 26/27/98 37/41/99
f 37/41/99 26/27/98 38/40/100
f 26/27/101 27/29/102 38/40/103
f 38/40/103 27/29/102 39/42/104
f 27/29/105 28/30/106 39/42/107
f 39/42/107 28/30/106 40/43/108
f 28/30/109 29/31/110 40/43/111
f 40/43/111 29/31/110 41/44/112
f 29/31/113 30/32/114 41/44/115
f 41/44/115 30/32/114 42/45/116
f 30/32/117 31/33/118 42/45/119
f 42/45/119 31/33/118 43/46/120
f 31/33/121 32/34/122 43/46/123
f 43/46/123 32/34/122 44/47/124
f 32/34/125 33/35/126 44/47/127
f 44/47/127 33/35/126 45/48/128
f 33/35/129 34/36/130 45/48/131
f 45/48/131 34/36/130 46/49/132
f 34/36/133 35/37/134 46/49/135
f 46/49/135 35/37/134 47/50/136
f 35/37/137 36/38/138 47/50/139
f 47/50/139 36/38/138 48/51/140
f 36/38/141 25/39/142 48/51/143
f 48/51/143 25/39/142 37/52/144
f 37/41/145 38/40/146 49/54/147
f 49/54/147 38/40/146 50/53/148
f 38/40/149 39/42/150 50/53/151
f 50/53/151 39/42/150 51/55/152
f 39/42/153 40/43/154 51/55/155
f 51/55/155 40/43/154 52/56/156
f 40/43/157 41/44/158 52/56/159
f 52/56/159 41/44/158 53/57/160
f 41/44/161 42/45/162 53/57/163
f 53/57/163 42/45/162 54/58/164
f 42/45/165 43/46/166 54/58/167
f 54/58/167 43/46/166 55/59/168
f 43/46/169 44/47/170 55/59/171
f 55/59/171 44/47/170 56/60/172
f 44/47/173 45/48/174 56/60/175
f 56/60/175 45/48/174 57/61/176
f 45/48/177 46/49/178 57/61/179
f 57/61/179 46/49/178 58/62/180
f 46/49/181 47/50/182 58/62/183
f 58/62/183 47/50/182 59/63/184
f 47/50/185 48/51/186 59/63/187
f 59/63/187 48/51/186 60/64/188
f 48/51/189 37/52/190 60/64/191
f 60/64/191 37/52/190 49/65/192
f 49/54/193 50/53/194 61/67/195
f 61/67/195 50/53/194 62/66/196
f 50/53/197 51/55/198 62/66/199
f 62/66/199 51/55/198 63/68/200
f 51/55/201 52/56/202 63/68/203
f 63/68/203 52/56/202 64/69/204
f 52/56/205 53/57/206 64/69/207
f 64/69/207 53/57/206 65/70/208
f 53/57/209 54/58/210 65/70/211
f 65/70/211 54/58/210 66/71/212
f 54/58/213 55/59/214 66/71/215
f 66/71/215 55/59/214 67/72/216
f 55/59/217 56/60/218 67/72/219
f 67/72/219 56/60/218 68/73/220
f 56/60/221 57/61/222 68/73/223
f 68/73/223 57/61/222 69/74/224
f 57/61/225 58/62/226 69/74/227
f 69/74/227 58/62/226 70/75/228
f 58/62/229 59/63/230 70/75/231
f 70/75/231 59/63/230 71/76/232
f 59/63/233 60/64/234 71/76/235
f 71/76/235 60/64/234 72/77/236
f 60/64/237 49/65/238 72/77/239
f 72/77/239 49/65/238 61/78/240
f 61/67/241 62/66/242 73/80/243
f 73/80/243 62/66/242 74/79/244
f 62/66/245 63/68/246 74/79/247
f 74/79/247 63/68/246 75/81/248
f 63/68/249 64/69/250 75/81/251
f 75/81/251 64/69/250 76/82/252
f 64/69/253 65/70/254 76/82/255
f 76/82/255 65/70/254 77/83/256
f 65/70/257 66/71/258 77/83/259
f 77/83/259 66/71/258 78/84/260
f 66/71/261 67/72/262 78/84/263
f 78/84/263 67/72/262 79/85/264
f 67/72/265 68/73/266 79/85/267
f 79/85/267 68/73/266 80/86/268
f 68/73/269 69/74/270 80/86/271
f 80/86/271 69/74/270 81/87/272
f 69/74/273 70/75/274 81/87/275
f 81/87/275 70/75/274 82/88/276
f 70/75/277 71/76/278 82/88/279
f 82/88/279 71/76/278 83/89/280
f 71/76/281 72/77/282 83/89/283
f 83/89/283 72/77/282 84/90/284
f 72/77/285 61/78/286 84/90/287
f 84/90/287 61/78/286 73/91/288
f 2/2/289 1/1/290 85/92/291
f 3/5/292 2/2/293 85/93/294
f 4/7/295 3/5/296 85/94/297
f 5/9/298 4/7/299 85/95/300
f 6/11/301 5/9/302 85/96/303
f 7/13/304 6/11/305 85/97/306
f 8/15/307 7/13/308 85/98/309
f 9/17/310 8/15/311 85/99/312
f 10/19/313 9/17/314 85/100/315
f 11/21/316 10/19/317 85/101/318
f 12/23/319 11/21/320 85/102/321
f 1/25/322 12/23/323 85/103/324
f 73/80/325 74/79/326 86/104/327
f 74/79/328 75/81/329 86/105/330
f 75/81/331 76/82/332 86/106/333
f 76/82/334 77/83/335 86/107/336
f 77/83/337 78/84/338 86/108/339
f 78/84/340 79/85/341 86/109/342
f 79/85/343 80/86/344 86/110/345
f 80/86/346 81/87/347 86/111/348
f 81/87/349 82/88/350 86/112/351
f 82/88/352 83/89/353 86/113/354
f 83/89/355 84/90/356 86/114/357
f 84/90/358 73/91/359 86/115/360
